<mxfile host="65bd71144e">
    <diagram id="s98oAX3t3QnvA7-sH4KN" name="Page-1">
        <mxGraphModel dx="1003" dy="407" grid="1" gridSize="10" guides="1" tooltips="1" connect="1" arrows="1" fold="1" page="1" pageScale="1" pageWidth="850" pageHeight="1100" background="#FFFFFF" math="0" shadow="0">
            <root>
                <mxCell id="0"/>
                <mxCell id="1" parent="0"/>
                <mxCell id="4" value="I.6.3&lt;br&gt;Menú de premios" style="shape=umlBoundary;whiteSpace=wrap;html=1;fillColor=#f5f5f5;fontColor=#333333;strokeColor=#666666;" parent="1" vertex="1">
                    <mxGeometry x="125" y="150" width="90" height="60" as="geometry"/>
                </mxCell>
                <mxCell id="5" value="I.6.4&lt;br&gt;Descripción de premio" style="shape=umlBoundary;whiteSpace=wrap;html=1;fillColor=#f5f5f5;fontColor=#333333;strokeColor=#666666;" parent="1" vertex="1">
                    <mxGeometry x="125" y="250" width="90" height="60" as="geometry"/>
                </mxCell>
                <mxCell id="6" value="Gestor" style="ellipse;shape=umlControl;whiteSpace=wrap;html=1;fillColor=#f5f5f5;fontColor=#333333;strokeColor=#666666;" parent="1" vertex="1">
                    <mxGeometry x="280" y="180" width="60" height="70" as="geometry"/>
                </mxCell>
                <mxCell id="7" value="ResultadoSQL" style="ellipse;shape=umlEntity;whiteSpace=wrap;html=1;fillColor=#f5f5f5;fontColor=#333333;strokeColor=#666666;" parent="1" vertex="1">
                    <mxGeometry x="590" y="260" width="90" height="70" as="geometry"/>
                </mxCell>
                <mxCell id="8" value="GestorPremios" style="ellipse;shape=umlControl;whiteSpace=wrap;html=1;fillColor=#f5f5f5;fontColor=#333333;strokeColor=#666666;" parent="1" vertex="1">
                    <mxGeometry x="390" y="110" width="90" height="80" as="geometry"/>
                </mxCell>
                <mxCell id="9" value="" style="endArrow=classic;html=1;fillColor=#f5f5f5;strokeColor=#666666;" parent="1" source="4" target="6" edge="1">
                    <mxGeometry width="50" height="50" relative="1" as="geometry">
                        <mxPoint x="170" y="320" as="sourcePoint"/>
                        <mxPoint x="220" y="270" as="targetPoint"/>
                    </mxGeometry>
                </mxCell>
                <mxCell id="10" value="" style="endArrow=classic;html=1;rounded=1;labelBackgroundColor=default;fontFamily=Helvetica;fontSize=11;fontColor=default;strokeColor=#666666;fillColor=#f5f5f5;shape=connector;" parent="1" source="6" target="8" edge="1">
                    <mxGeometry width="50" height="50" relative="1" as="geometry">
                        <mxPoint x="350" y="320" as="sourcePoint"/>
                        <mxPoint x="400" y="270" as="targetPoint"/>
                    </mxGeometry>
                </mxCell>
                <mxCell id="11" value="SGBD" style="ellipse;shape=umlControl;whiteSpace=wrap;html=1;fontFamily=Helvetica;fontSize=11;fontColor=#333333;fillColor=#f5f5f5;strokeColor=#666666;" parent="1" vertex="1">
                    <mxGeometry x="570" y="110" width="70" height="80" as="geometry"/>
                </mxCell>
                <mxCell id="12" value="" style="endArrow=classic;html=1;rounded=1;labelBackgroundColor=default;fontFamily=Helvetica;fontSize=11;fontColor=#333333;strokeColor=#666666;fillColor=#f5f5f5;shape=connector;" parent="1" source="8" target="11" edge="1">
                    <mxGeometry width="50" height="50" relative="1" as="geometry">
                        <mxPoint x="480" y="300" as="sourcePoint"/>
                        <mxPoint x="530" y="250" as="targetPoint"/>
                    </mxGeometry>
                </mxCell>
                <mxCell id="13" value="" style="endArrow=classic;html=1;rounded=1;labelBackgroundColor=default;fontFamily=Helvetica;fontSize=11;fontColor=#333333;strokeColor=#666666;fillColor=#f5f5f5;shape=connector;" parent="1" source="11" target="7" edge="1">
                    <mxGeometry width="50" height="50" relative="1" as="geometry">
                        <mxPoint x="480" y="300" as="sourcePoint"/>
                        <mxPoint x="530" y="250" as="targetPoint"/>
                    </mxGeometry>
                </mxCell>
                <mxCell id="14" value="" style="endArrow=classic;html=1;rounded=1;labelBackgroundColor=default;fontFamily=Helvetica;fontSize=11;fontColor=#333333;strokeColor=#666666;fillColor=#f5f5f5;shape=connector;" parent="1" source="8" target="7" edge="1">
                    <mxGeometry width="50" height="50" relative="1" as="geometry">
                        <mxPoint x="480" y="300" as="sourcePoint"/>
                        <mxPoint x="530" y="250" as="targetPoint"/>
                    </mxGeometry>
                </mxCell>
                <mxCell id="15" value="" style="endArrow=classic;html=1;rounded=1;labelBackgroundColor=default;fontFamily=Helvetica;fontSize=11;fontColor=#333333;strokeColor=#666666;fillColor=#f5f5f5;shape=connector;" parent="1" source="4" target="5" edge="1">
                    <mxGeometry width="50" height="50" relative="1" as="geometry">
                        <mxPoint x="260" y="310" as="sourcePoint"/>
                        <mxPoint x="310" y="260" as="targetPoint"/>
                        <Array as="points">
                            <mxPoint x="230" y="230"/>
                        </Array>
                    </mxGeometry>
                </mxCell>
                <mxCell id="16" value="" style="endArrow=classic;html=1;rounded=1;labelBackgroundColor=default;fontFamily=Helvetica;fontSize=11;fontColor=#333333;strokeColor=#666666;fillColor=#f5f5f5;shape=connector;" parent="1" source="5" target="6" edge="1">
                    <mxGeometry width="50" height="50" relative="1" as="geometry">
                        <mxPoint x="240" y="360" as="sourcePoint"/>
                        <mxPoint x="290" y="310" as="targetPoint"/>
                    </mxGeometry>
                </mxCell>
                <mxCell id="17" value="" style="endArrow=classic;html=1;rounded=1;labelBackgroundColor=default;fontFamily=Helvetica;fontSize=11;fontColor=#333333;strokeColor=#666666;fillColor=#f5f5f5;shape=connector;" parent="1" target="4" edge="1">
                    <mxGeometry width="50" height="50" relative="1" as="geometry">
                        <mxPoint x="60" y="190" as="sourcePoint"/>
                        <mxPoint x="260" y="370" as="targetPoint"/>
                    </mxGeometry>
                </mxCell>
                <mxCell id="18" value="" style="endArrow=classic;html=1;rounded=1;labelBackgroundColor=default;fontFamily=Helvetica;fontSize=11;fontColor=#333333;strokeColor=#666666;fillColor=#f5f5f5;shape=connector;exitX=0.5;exitY=0.5;exitDx=0;exitDy=0;exitPerimeter=0;entryX=0.044;entryY=0.55;entryDx=0;entryDy=0;entryPerimeter=0;" parent="1" target="5" edge="1">
                    <mxGeometry width="50" height="50" relative="1" as="geometry">
                        <mxPoint x="55" y="190" as="sourcePoint"/>
                        <mxPoint x="220" y="400" as="targetPoint"/>
                    </mxGeometry>
                </mxCell>
                <mxCell id="19" value="" style="endArrow=classic;html=1;rounded=1;labelBackgroundColor=default;fontFamily=Helvetica;fontSize=11;fontColor=#333333;strokeColor=#666666;fillColor=#f5f5f5;shape=connector;entryX=0.422;entryY=0.983;entryDx=0;entryDy=0;entryPerimeter=0;" parent="1" source="5" target="4" edge="1">
                    <mxGeometry width="50" height="50" relative="1" as="geometry">
                        <mxPoint x="170" y="450" as="sourcePoint"/>
                        <mxPoint x="220" y="400" as="targetPoint"/>
                        <Array as="points">
                            <mxPoint x="140" y="230"/>
                        </Array>
                    </mxGeometry>
                </mxCell>
                <mxCell id="20" value="1" style="text;html=1;align=center;verticalAlign=middle;resizable=0;points=[];autosize=1;strokeColor=none;fillColor=none;fontSize=11;fontFamily=Helvetica;fontColor=#333333;" parent="1" vertex="1">
                    <mxGeometry x="240" y="180" width="20" height="20" as="geometry"/>
                </mxCell>
                <mxCell id="21" value="2" style="text;html=1;align=center;verticalAlign=middle;resizable=0;points=[];autosize=1;strokeColor=none;fillColor=none;fontSize=11;fontFamily=Helvetica;fontColor=#333333;" parent="1" vertex="1">
                    <mxGeometry x="80" y="160" width="20" height="20" as="geometry"/>
                </mxCell>
                <mxCell id="23" value="3" style="text;html=1;align=center;verticalAlign=middle;resizable=0;points=[];autosize=1;strokeColor=none;fillColor=none;fontSize=11;fontFamily=Helvetica;fontColor=#333333;" parent="1" vertex="1">
                    <mxGeometry x="225" y="220" width="20" height="20" as="geometry"/>
                </mxCell>
                <mxCell id="24" value="4" style="text;html=1;align=center;verticalAlign=middle;resizable=0;points=[];autosize=1;strokeColor=none;fillColor=none;fontSize=11;fontFamily=Helvetica;fontColor=#333333;" parent="1" vertex="1">
                    <mxGeometry x="90" y="220" width="20" height="20" as="geometry"/>
                </mxCell>
                <mxCell id="25" value="5" style="text;html=1;align=center;verticalAlign=middle;resizable=0;points=[];autosize=1;strokeColor=none;fillColor=none;fontSize=11;fontFamily=Helvetica;fontColor=#333333;" parent="1" vertex="1">
                    <mxGeometry x="125" y="220" width="20" height="20" as="geometry"/>
                </mxCell>
                <mxCell id="26" value="3.1" style="text;html=1;align=center;verticalAlign=middle;resizable=0;points=[];autosize=1;strokeColor=none;fillColor=none;fontSize=11;fontFamily=Helvetica;fontColor=#333333;" parent="1" vertex="1">
                    <mxGeometry x="235" y="250" width="30" height="20" as="geometry"/>
                </mxCell>
                <mxCell id="29" value="1.3" style="text;html=1;align=center;verticalAlign=middle;resizable=0;points=[];autosize=1;strokeColor=none;fillColor=none;fontSize=11;fontFamily=Helvetica;fontColor=#333333;" parent="1" vertex="1">
                    <mxGeometry x="360" y="190" width="30" height="20" as="geometry"/>
                </mxCell>
                <mxCell id="30" value="1.3.1" style="text;html=1;align=center;verticalAlign=middle;resizable=0;points=[];autosize=1;strokeColor=none;fillColor=none;fontSize=11;fontFamily=Helvetica;fontColor=#333333;" parent="1" vertex="1">
                    <mxGeometry x="505" y="120" width="40" height="20" as="geometry"/>
                </mxCell>
                <mxCell id="31" value="GestorUsuario" style="ellipse;shape=umlControl;whiteSpace=wrap;html=1;fontFamily=Helvetica;fontSize=11;fontColor=#333333;strokeColor=#666666;fillColor=#f5f5f5;" parent="1" vertex="1">
                    <mxGeometry x="266" y="50" width="84" height="70" as="geometry"/>
                </mxCell>
                <mxCell id="32" value="" style="endArrow=classic;html=1;rounded=1;labelBackgroundColor=default;fontFamily=Helvetica;fontSize=11;fontColor=#333333;strokeColor=#666666;fillColor=#f5f5f5;shape=connector;entryX=0.464;entryY=1.014;entryDx=0;entryDy=0;entryPerimeter=0;" parent="1" source="6" target="31" edge="1">
                    <mxGeometry width="50" height="50" relative="1" as="geometry">
                        <mxPoint x="210" y="410" as="sourcePoint"/>
                        <mxPoint x="260" y="360" as="targetPoint"/>
                    </mxGeometry>
                </mxCell>
                <mxCell id="33" value="1.1" style="text;html=1;align=center;verticalAlign=middle;resizable=0;points=[];autosize=1;strokeColor=none;fillColor=none;fontSize=11;fontFamily=Helvetica;fontColor=#333333;" parent="1" vertex="1">
                    <mxGeometry x="305" y="140" width="30" height="20" as="geometry"/>
                </mxCell>
                <mxCell id="34" value="Usuario" style="ellipse;shape=umlEntity;whiteSpace=wrap;html=1;fontFamily=Helvetica;fontSize=11;fontColor=#333333;strokeColor=#666666;fillColor=#f5f5f5;" parent="1" vertex="1">
                    <mxGeometry x="155" y="60" width="60" height="60" as="geometry"/>
                </mxCell>
                <mxCell id="35" value="" style="endArrow=classic;html=1;rounded=1;labelBackgroundColor=default;fontFamily=Helvetica;fontSize=11;fontColor=#333333;strokeColor=#666666;fillColor=#f5f5f5;shape=connector;" parent="1" source="31" target="34" edge="1">
                    <mxGeometry width="50" height="50" relative="1" as="geometry">
                        <mxPoint x="300" y="410" as="sourcePoint"/>
                        <mxPoint x="350" y="360" as="targetPoint"/>
                    </mxGeometry>
                </mxCell>
                <mxCell id="36" value="1.2.1" style="text;html=1;align=center;verticalAlign=middle;resizable=0;points=[];autosize=1;strokeColor=none;fillColor=none;fontSize=11;fontFamily=Helvetica;fontColor=#333333;" parent="1" vertex="1">
                    <mxGeometry x="225" y="90" width="40" height="20" as="geometry"/>
                </mxCell>
                <mxCell id="38" value="1.3.1.1" style="text;html=1;align=center;verticalAlign=middle;resizable=0;points=[];autosize=1;strokeColor=none;fillColor=none;fontSize=11;fontFamily=Helvetica;fontColor=#333333;" parent="1" vertex="1">
                    <mxGeometry x="620" y="200" width="50" height="20" as="geometry"/>
                </mxCell>
                <mxCell id="40" value="1.2" style="text;html=1;align=center;verticalAlign=middle;resizable=0;points=[];autosize=1;strokeColor=none;fillColor=none;fontSize=11;fontFamily=Helvetica;fontColor=#333333;" parent="1" vertex="1">
                    <mxGeometry x="305" y="150" width="30" height="20" as="geometry"/>
                </mxCell>
                <mxCell id="42" value="1.3.2" style="text;html=1;align=center;verticalAlign=middle;resizable=0;points=[];autosize=1;strokeColor=none;fillColor=none;fontSize=11;fontFamily=Helvetica;fontColor=#333333;" parent="1" vertex="1">
                    <mxGeometry x="485" y="210" width="40" height="20" as="geometry"/>
                </mxCell>
                <mxCell id="43" value="1.3.3" style="text;html=1;align=center;verticalAlign=middle;resizable=0;points=[];autosize=1;strokeColor=none;fillColor=none;fontSize=11;fontFamily=Helvetica;fontColor=#333333;" parent="1" vertex="1">
                    <mxGeometry x="485" y="220" width="40" height="20" as="geometry"/>
                </mxCell>
                <mxCell id="44" value="1.3.4" style="text;html=1;align=center;verticalAlign=middle;resizable=0;points=[];autosize=1;strokeColor=none;fillColor=none;fontSize=11;fontFamily=Helvetica;fontColor=#333333;" parent="1" vertex="1">
                    <mxGeometry x="485" y="230" width="40" height="20" as="geometry"/>
                </mxCell>
                <mxCell id="46" value="3.1.3" style="text;html=1;align=center;verticalAlign=middle;resizable=0;points=[];autosize=1;strokeColor=none;fillColor=none;fontSize=11;fontFamily=Helvetica;fontColor=#333333;" parent="1" vertex="1">
                    <mxGeometry x="355" y="210" width="40" height="20" as="geometry"/>
                </mxCell>
                <mxCell id="48" value="3.1.3.1" style="text;html=1;align=center;verticalAlign=middle;resizable=0;points=[];autosize=1;strokeColor=none;fillColor=none;fontSize=11;fontFamily=Helvetica;fontColor=#333333;" parent="1" vertex="1">
                    <mxGeometry x="495" y="150" width="50" height="20" as="geometry"/>
                </mxCell>
                <mxCell id="49" value="3.1.3.1.1" style="text;html=1;align=center;verticalAlign=middle;resizable=0;points=[];autosize=1;strokeColor=none;fillColor=none;fontSize=11;fontFamily=Helvetica;fontColor=#333333;" parent="1" vertex="1">
                    <mxGeometry x="620" y="220" width="60" height="20" as="geometry"/>
                </mxCell>
                <mxCell id="50" value="3.1.1" style="text;html=1;align=center;verticalAlign=middle;resizable=0;points=[];autosize=1;fontColor=#000000;fontSize=11;" parent="1" vertex="1">
                    <mxGeometry x="265" y="140" width="40" height="20" as="geometry"/>
                </mxCell>
                <mxCell id="51" value="3.1.2" style="text;html=1;align=center;verticalAlign=middle;resizable=0;points=[];autosize=1;fontColor=#000000;fontSize=11;" parent="1" vertex="1">
                    <mxGeometry x="266" y="160" width="40" height="20" as="geometry"/>
                </mxCell>
                <mxCell id="52" value="3.1.3.2" style="text;html=1;align=center;verticalAlign=middle;resizable=0;points=[];autosize=1;strokeColor=none;fillColor=none;fontSize=11;fontFamily=Helvetica;fontColor=#000000;" parent="1" vertex="1">
                    <mxGeometry x="520" y="260" width="50" height="20" as="geometry"/>
                </mxCell>
                <mxCell id="53" value="3.1.3.3" style="text;html=1;align=center;verticalAlign=middle;resizable=0;points=[];autosize=1;strokeColor=none;fillColor=none;fontSize=11;fontFamily=Helvetica;fontColor=#000000;" parent="1" vertex="1">
                    <mxGeometry x="520" y="270" width="50" height="20" as="geometry"/>
                </mxCell>
                <mxCell id="54" value="3.1.3.5" style="text;html=1;align=center;verticalAlign=middle;resizable=0;points=[];autosize=1;strokeColor=none;fillColor=none;fontSize=11;fontFamily=Helvetica;fontColor=#000000;" parent="1" vertex="1">
                    <mxGeometry x="520" y="290" width="50" height="20" as="geometry"/>
                </mxCell>
                <mxCell id="55" value="3.1.3.4" style="text;html=1;align=center;verticalAlign=middle;resizable=0;points=[];autosize=1;strokeColor=none;fillColor=none;fontSize=11;fontFamily=Helvetica;fontColor=#000000;" parent="1" vertex="1">
                    <mxGeometry x="520" y="280" width="50" height="20" as="geometry"/>
                </mxCell>
                <mxCell id="56" value="Actor" style="shape=umlActor;verticalLabelPosition=bottom;verticalAlign=top;html=1;outlineConnect=0;fillColor=#f5f5f5;fontColor=#333333;strokeColor=#666666;" parent="1" vertex="1">
                    <mxGeometry x="40" y="160" width="30" height="60" as="geometry"/>
                </mxCell>
                <mxCell id="62" style="edgeStyle=none;shape=connector;rounded=1;html=1;labelBackgroundColor=default;fontFamily=Helvetica;fontSize=11;fontColor=#000000;endArrow=classic;strokeColor=#666666;fillColor=#f5f5f5;" parent="1" source="58" target="61" edge="1">
                    <mxGeometry relative="1" as="geometry"/>
                </mxCell>
                <mxCell id="64" style="edgeStyle=none;shape=connector;rounded=1;html=1;labelBackgroundColor=default;fontFamily=Helvetica;fontSize=11;fontColor=#000000;endArrow=classic;strokeColor=#666666;fillColor=#f5f5f5;" parent="1" source="61" target="66" edge="1">
                    <mxGeometry relative="1" as="geometry"/>
                </mxCell>
                <mxCell id="67" style="edgeStyle=none;shape=connector;rounded=1;html=1;labelBackgroundColor=default;fontFamily=Helvetica;fontSize=11;fontColor=#000000;endArrow=classic;strokeColor=#666666;fillColor=#f5f5f5;" parent="1" source="66" target="63" edge="1">
                    <mxGeometry relative="1" as="geometry">
                        <mxPoint x="486.5430560011848" y="339.9621306484196" as="sourcePoint"/>
                    </mxGeometry>
                </mxCell>
                <mxCell id="69" style="edgeStyle=none;shape=connector;rounded=1;html=1;labelBackgroundColor=default;fontFamily=Helvetica;fontSize=11;fontColor=#000000;endArrow=classic;strokeColor=#666666;fillColor=#f5f5f5;" parent="1" source="66" target="66" edge="1">
                    <mxGeometry relative="1" as="geometry">
                        <Array as="points">
                            <mxPoint x="430" y="335"/>
                            <mxPoint x="404" y="335"/>
                        </Array>
                    </mxGeometry>
                </mxCell>
                <mxCell id="127" style="edgeStyle=none;shape=connector;rounded=1;html=1;labelBackgroundColor=default;fontFamily=Helvetica;fontSize=11;fontColor=#000000;endArrow=classic;strokeColor=#666666;fillColor=#f5f5f5;" parent="1" source="63" target="126" edge="1">
                    <mxGeometry relative="1" as="geometry"/>
                </mxCell>
                <mxCell id="130" style="edgeStyle=none;shape=connector;rounded=1;html=1;labelBackgroundColor=default;fontFamily=Helvetica;fontSize=11;fontColor=#000000;endArrow=classic;strokeColor=#666666;fillColor=#f5f5f5;" parent="1" source="66" target="129" edge="1">
                    <mxGeometry relative="1" as="geometry"/>
                </mxCell>
                <mxCell id="132" style="edgeStyle=none;shape=connector;rounded=1;html=1;labelBackgroundColor=default;fontFamily=Helvetica;fontSize=11;fontColor=#000000;endArrow=classic;strokeColor=#666666;fillColor=#f5f5f5;" parent="1" source="129" target="131" edge="1">
                    <mxGeometry relative="1" as="geometry"/>
                </mxCell>
                <mxCell id="135" style="edgeStyle=none;shape=connector;rounded=1;html=1;labelBackgroundColor=default;fontFamily=Helvetica;fontSize=11;fontColor=#000000;endArrow=classic;strokeColor=#666666;fillColor=#f5f5f5;" parent="1" source="131" target="131" edge="1">
                    <mxGeometry relative="1" as="geometry">
                        <Array as="points">
                            <mxPoint x="110" y="560"/>
                        </Array>
                    </mxGeometry>
                </mxCell>
                <mxCell id="166" style="edgeStyle=none;shape=connector;rounded=1;html=1;labelBackgroundColor=default;fontFamily=Helvetica;fontSize=11;fontColor=#000000;endArrow=classic;strokeColor=#666666;fillColor=#f5f5f5;" parent="1" source="66" target="165" edge="1">
                    <mxGeometry relative="1" as="geometry">
                        <Array as="points">
                            <mxPoint x="420" y="490"/>
                        </Array>
                    </mxGeometry>
                </mxCell>
                <mxCell id="174" style="edgeStyle=none;html=1;fillColor=#f5f5f5;strokeColor=#666666;" parent="1" source="8" target="173" edge="1">
                    <mxGeometry relative="1" as="geometry"/>
                </mxCell>
                <mxCell id="57" value="Actor" style="shape=umlActor;verticalLabelPosition=bottom;verticalAlign=top;html=1;outlineConnect=0;fillColor=#f5f5f5;fontColor=#333333;strokeColor=#666666;" parent="1" vertex="1">
                    <mxGeometry x="30" y="380" width="30" height="60" as="geometry"/>
                </mxCell>
                <mxCell id="58" value="I.4.3&lt;br&gt;partida" style="shape=umlBoundary;whiteSpace=wrap;html=1;fillColor=#f5f5f5;fontColor=#333333;strokeColor=#666666;" parent="1" vertex="1">
                    <mxGeometry x="110" y="385" width="80" height="50" as="geometry"/>
                </mxCell>
                <mxCell id="60" value="&lt;font color=&quot;#000000&quot;&gt;6&lt;/font&gt;" style="text;html=1;align=center;verticalAlign=middle;resizable=0;points=[];autosize=1;strokeColor=none;fillColor=none;fontSize=11;fontFamily=Helvetica;fontColor=default;" parent="1" vertex="1">
                    <mxGeometry x="205" y="385" width="20" height="20" as="geometry"/>
                </mxCell>
                <mxCell id="61" value="Gestor" style="ellipse;shape=umlControl;whiteSpace=wrap;html=1;fillColor=#f5f5f5;fontColor=#333333;strokeColor=#666666;" parent="1" vertex="1">
                    <mxGeometry x="256" y="375" width="60" height="70" as="geometry"/>
                </mxCell>
                <mxCell id="63" value="GestorUsuario" style="ellipse;shape=umlControl;whiteSpace=wrap;html=1;fontFamily=Helvetica;fontSize=11;fontColor=#333333;strokeColor=#666666;fillColor=#f5f5f5;" parent="1" vertex="1">
                    <mxGeometry x="570" y="405" width="84" height="70" as="geometry"/>
                </mxCell>
                <mxCell id="65" value="6.1" style="text;html=1;align=center;verticalAlign=middle;resizable=0;points=[];autosize=1;strokeColor=none;fillColor=none;fontSize=11;fontFamily=Helvetica;fontColor=#000000;" parent="1" vertex="1">
                    <mxGeometry x="325" y="385" width="30" height="20" as="geometry"/>
                </mxCell>
                <mxCell id="66" value="GestorPremios" style="ellipse;shape=umlControl;whiteSpace=wrap;html=1;fillColor=#f5f5f5;fontColor=#333333;strokeColor=#666666;" parent="1" vertex="1">
                    <mxGeometry x="360" y="375" width="90" height="70" as="geometry"/>
                </mxCell>
                <mxCell id="71" value="6.1.1" style="text;html=1;align=center;verticalAlign=middle;resizable=0;points=[];autosize=1;strokeColor=none;fillColor=none;fontSize=11;fontFamily=Helvetica;fontColor=#000000;" parent="1" vertex="1">
                    <mxGeometry x="355" y="340" width="40" height="20" as="geometry"/>
                </mxCell>
                <mxCell id="73" value="6.1.2" style="text;html=1;align=center;verticalAlign=middle;resizable=0;points=[];autosize=1;strokeColor=none;fillColor=none;fontSize=11;fontFamily=Helvetica;fontColor=#000000;" parent="1" vertex="1">
                    <mxGeometry x="355" y="355" width="40" height="20" as="geometry"/>
                </mxCell>
                <mxCell id="119" style="edgeStyle=none;shape=connector;rounded=1;html=1;labelBackgroundColor=default;fontFamily=Helvetica;fontSize=11;fontColor=#000000;endArrow=classic;strokeColor=#666666;fillColor=#f5f5f5;" parent="1" source="89" target="118" edge="1">
                    <mxGeometry relative="1" as="geometry"/>
                </mxCell>
                <mxCell id="124" style="edgeStyle=none;shape=connector;rounded=1;html=1;labelBackgroundColor=default;fontFamily=Helvetica;fontSize=11;fontColor=#000000;endArrow=classic;strokeColor=#666666;fillColor=#f5f5f5;" parent="1" source="118" target="123" edge="1">
                    <mxGeometry relative="1" as="geometry"/>
                </mxCell>
                <mxCell id="156" style="edgeStyle=none;shape=connector;rounded=1;html=1;labelBackgroundColor=default;fontFamily=Helvetica;fontSize=11;fontColor=#000000;endArrow=classic;strokeColor=#666666;fillColor=#f5f5f5;" parent="1" source="89" target="155" edge="1">
                    <mxGeometry relative="1" as="geometry"/>
                </mxCell>
                <mxCell id="187" style="edgeStyle=none;html=1;fontSize=11;fontColor=#000000;fillColor=#f5f5f5;strokeColor=#666666;" parent="1" source="89" target="186" edge="1">
                    <mxGeometry relative="1" as="geometry"/>
                </mxCell>
                <mxCell id="77" value="Actor" style="shape=umlActor;verticalLabelPosition=bottom;verticalAlign=top;html=1;outlineConnect=0;fillColor=#f5f5f5;fontColor=#333333;strokeColor=#666666;" parent="1" vertex="1">
                    <mxGeometry x="30" y="605" width="30" height="60" as="geometry"/>
                </mxCell>
                <mxCell id="79" style="edgeStyle=none;shape=connector;rounded=1;html=1;labelBackgroundColor=default;fontFamily=Helvetica;fontSize=11;fontColor=#000000;endArrow=classic;strokeColor=#666666;fillColor=#f5f5f5;" parent="1" source="84" target="86" edge="1">
                    <mxGeometry relative="1" as="geometry"/>
                </mxCell>
                <mxCell id="80" style="edgeStyle=none;shape=connector;rounded=1;html=1;labelBackgroundColor=default;fontFamily=Helvetica;fontSize=11;fontColor=#000000;endArrow=classic;strokeColor=#666666;fillColor=#f5f5f5;" parent="1" source="86" target="89" edge="1">
                    <mxGeometry relative="1" as="geometry"/>
                </mxCell>
                <mxCell id="81" style="edgeStyle=none;shape=connector;rounded=1;html=1;labelBackgroundColor=default;fontFamily=Helvetica;fontSize=11;fontColor=#000000;endArrow=classic;strokeColor=#666666;fillColor=#f5f5f5;" parent="1" source="89" target="87" edge="1">
                    <mxGeometry relative="1" as="geometry"/>
                </mxCell>
                <mxCell id="82" style="edgeStyle=none;shape=connector;rounded=1;html=1;labelBackgroundColor=default;fontFamily=Helvetica;fontSize=11;fontColor=#000000;endArrow=classic;strokeColor=#666666;fillColor=#f5f5f5;" parent="1" source="89" target="89" edge="1">
                    <mxGeometry relative="1" as="geometry">
                        <Array as="points">
                            <mxPoint x="410" y="570"/>
                            <mxPoint x="384" y="570"/>
                        </Array>
                    </mxGeometry>
                </mxCell>
                <mxCell id="83" style="edgeStyle=none;shape=connector;rounded=1;html=1;entryX=0.103;entryY=0.333;entryDx=0;entryDy=0;entryPerimeter=0;labelBackgroundColor=default;fontFamily=Helvetica;fontSize=11;fontColor=#000000;endArrow=classic;strokeColor=#666666;fillColor=#f5f5f5;" parent="1" source="89" target="95" edge="1">
                    <mxGeometry relative="1" as="geometry"/>
                </mxCell>
                <mxCell id="84" value="I.4.3&lt;br&gt;partida" style="shape=umlBoundary;whiteSpace=wrap;html=1;fillColor=#f5f5f5;fontColor=#333333;strokeColor=#666666;" parent="1" vertex="1">
                    <mxGeometry x="90" y="620" width="80" height="50" as="geometry"/>
                </mxCell>
                <mxCell id="85" value="&lt;font color=&quot;#000000&quot;&gt;7&lt;/font&gt;" style="text;html=1;align=center;verticalAlign=middle;resizable=0;points=[];autosize=1;strokeColor=none;fillColor=none;fontSize=11;fontFamily=Helvetica;fontColor=default;" parent="1" vertex="1">
                    <mxGeometry x="185" y="620" width="20" height="20" as="geometry"/>
                </mxCell>
                <mxCell id="86" value="Gestor" style="ellipse;shape=umlControl;whiteSpace=wrap;html=1;fillColor=#f5f5f5;fontColor=#333333;strokeColor=#666666;" parent="1" vertex="1">
                    <mxGeometry x="236" y="610" width="60" height="70" as="geometry"/>
                </mxCell>
                <mxCell id="87" value="GestorUsuario" style="ellipse;shape=umlControl;whiteSpace=wrap;html=1;fontFamily=Helvetica;fontSize=11;fontColor=#333333;strokeColor=#666666;fillColor=#f5f5f5;" parent="1" vertex="1">
                    <mxGeometry x="316" y="730" width="84" height="70" as="geometry"/>
                </mxCell>
                <mxCell id="88" value="7.1" style="text;html=1;align=center;verticalAlign=middle;resizable=0;points=[];autosize=1;strokeColor=none;fillColor=none;fontSize=11;fontFamily=Helvetica;fontColor=#000000;" parent="1" vertex="1">
                    <mxGeometry x="305" y="620" width="30" height="20" as="geometry"/>
                </mxCell>
                <mxCell id="89" value="GestorPremios" style="ellipse;shape=umlControl;whiteSpace=wrap;html=1;fillColor=#f5f5f5;fontColor=#333333;strokeColor=#666666;" parent="1" vertex="1">
                    <mxGeometry x="340" y="610" width="90" height="70" as="geometry"/>
                </mxCell>
                <mxCell id="90" value="7.1.4.1" style="text;html=1;align=center;verticalAlign=middle;resizable=0;points=[];autosize=1;strokeColor=none;fillColor=none;fontSize=11;fontFamily=Helvetica;fontColor=#000000;" parent="1" vertex="1">
                    <mxGeometry x="330" y="680" width="50" height="20" as="geometry"/>
                </mxCell>
                <mxCell id="92" value="7.1.1" style="text;html=1;align=center;verticalAlign=middle;resizable=0;points=[];autosize=1;strokeColor=none;fillColor=none;fontSize=11;fontFamily=Helvetica;fontColor=#000000;" parent="1" vertex="1">
                    <mxGeometry x="350" y="570" width="40" height="20" as="geometry"/>
                </mxCell>
                <mxCell id="93" value="7.1.4.2" style="text;html=1;align=center;verticalAlign=middle;resizable=0;points=[];autosize=1;strokeColor=none;fillColor=none;fontSize=11;fontFamily=Helvetica;fontColor=#000000;" parent="1" vertex="1">
                    <mxGeometry x="330" y="695" width="50" height="20" as="geometry"/>
                </mxCell>
                <mxCell id="94" value="7.1.4" style="text;html=1;align=center;verticalAlign=middle;resizable=0;points=[];autosize=1;strokeColor=none;fillColor=none;fontSize=11;fontFamily=Helvetica;fontColor=#000000;" parent="1" vertex="1">
                    <mxGeometry x="350" y="585" width="40" height="20" as="geometry"/>
                </mxCell>
                <mxCell id="95" value="SGBD" style="ellipse;shape=umlControl;whiteSpace=wrap;html=1;fontFamily=Helvetica;fontSize=11;fontColor=#333333;fillColor=#f5f5f5;strokeColor=#666666;" parent="1" vertex="1">
                    <mxGeometry x="540" y="650" width="70" height="80" as="geometry"/>
                </mxCell>
                <mxCell id="96" value="7.1.4.5" style="text;html=1;align=center;verticalAlign=middle;resizable=0;points=[];autosize=1;strokeColor=none;fillColor=none;fontSize=11;fontFamily=Helvetica;fontColor=#000000;" parent="1" vertex="1">
                    <mxGeometry x="480" y="640" width="50" height="20" as="geometry"/>
                </mxCell>
                <mxCell id="97" value="7.1.1.3" style="text;html=1;align=center;verticalAlign=middle;resizable=0;points=[];autosize=1;strokeColor=none;fillColor=none;fontSize=11;fontFamily=Helvetica;fontColor=#000000;" parent="1" vertex="1">
                    <mxGeometry x="401" y="565" width="50" height="20" as="geometry"/>
                </mxCell>
                <mxCell id="99" value="7.1.1.4" style="text;html=1;align=center;verticalAlign=middle;resizable=0;points=[];autosize=1;strokeColor=none;fillColor=none;fontSize=11;fontFamily=Helvetica;fontColor=#000000;" parent="1" vertex="1">
                    <mxGeometry x="401" y="575" width="50" height="20" as="geometry"/>
                </mxCell>
                <mxCell id="100" value="6.1.1.1" style="text;html=1;align=center;verticalAlign=middle;resizable=0;points=[];autosize=1;strokeColor=none;fillColor=none;fontSize=11;fontFamily=Helvetica;fontColor=#000000;" parent="1" vertex="1">
                    <mxGeometry x="425" y="330" width="50" height="20" as="geometry"/>
                </mxCell>
                <mxCell id="101" value="6.1.1.2" style="text;html=1;align=center;verticalAlign=middle;resizable=0;points=[];autosize=1;strokeColor=none;fillColor=none;fontSize=11;fontFamily=Helvetica;fontColor=#000000;" parent="1" vertex="1">
                    <mxGeometry x="425" y="340" width="50" height="20" as="geometry"/>
                </mxCell>
                <mxCell id="102" value="6.1.1.3" style="text;html=1;align=center;verticalAlign=middle;resizable=0;points=[];autosize=1;strokeColor=none;fillColor=none;fontSize=11;fontFamily=Helvetica;fontColor=#000000;" parent="1" vertex="1">
                    <mxGeometry x="425" y="350" width="50" height="20" as="geometry"/>
                </mxCell>
                <mxCell id="106" value="6.1.1.1.1" style="text;html=1;align=center;verticalAlign=middle;resizable=0;points=[];autosize=1;strokeColor=none;fillColor=none;fontSize=11;fontFamily=Helvetica;fontColor=#000000;" parent="1" vertex="1">
                    <mxGeometry x="509" y="430" width="60" height="20" as="geometry"/>
                </mxCell>
                <mxCell id="107" value="6.1.1.1.2" style="text;html=1;align=center;verticalAlign=middle;resizable=0;points=[];autosize=1;strokeColor=none;fillColor=none;fontSize=11;fontFamily=Helvetica;fontColor=#000000;" parent="1" vertex="1">
                    <mxGeometry x="509" y="440" width="60" height="20" as="geometry"/>
                </mxCell>
                <mxCell id="108" value="6.1.1.2.1" style="text;html=1;align=center;verticalAlign=middle;resizable=0;points=[];autosize=1;strokeColor=none;fillColor=none;fontSize=11;fontFamily=Helvetica;fontColor=#000000;" parent="1" vertex="1">
                    <mxGeometry x="509" y="450" width="60" height="20" as="geometry"/>
                </mxCell>
                <mxCell id="109" value="6.1.1.2.2" style="text;html=1;align=center;verticalAlign=middle;resizable=0;points=[];autosize=1;strokeColor=none;fillColor=none;fontSize=11;fontFamily=Helvetica;fontColor=#000000;" parent="1" vertex="1">
                    <mxGeometry x="509" y="460" width="60" height="20" as="geometry"/>
                </mxCell>
                <mxCell id="110" value="6.1.1.3.1" style="text;html=1;align=center;verticalAlign=middle;resizable=0;points=[];autosize=1;strokeColor=none;fillColor=none;fontSize=11;fontFamily=Helvetica;fontColor=#000000;" parent="1" vertex="1">
                    <mxGeometry x="509" y="470" width="60" height="20" as="geometry"/>
                </mxCell>
                <mxCell id="111" value="6.1.1.3.2" style="text;html=1;align=center;verticalAlign=middle;resizable=0;points=[];autosize=1;strokeColor=none;fillColor=none;fontSize=11;fontFamily=Helvetica;fontColor=#000000;" parent="1" vertex="1">
                    <mxGeometry x="509" y="480" width="60" height="20" as="geometry"/>
                </mxCell>
                <mxCell id="118" value="GestorPartida" style="ellipse;shape=umlControl;whiteSpace=wrap;html=1;fontFamily=Helvetica;fontSize=11;fontColor=#333333;strokeColor=#666666;fillColor=#f5f5f5;" parent="1" vertex="1">
                    <mxGeometry x="425" y="720" width="84" height="70" as="geometry"/>
                </mxCell>
                <mxCell id="120" value="7.1.1.3.1" style="text;html=1;align=center;verticalAlign=middle;resizable=0;points=[];autosize=1;strokeColor=none;fillColor=none;fontSize=11;fontFamily=Helvetica;fontColor=#000000;" parent="1" vertex="1">
                    <mxGeometry x="415" y="675" width="60" height="20" as="geometry"/>
                </mxCell>
                <mxCell id="122" value="7.1.1.3.2" style="text;html=1;align=center;verticalAlign=middle;resizable=0;points=[];autosize=1;strokeColor=none;fillColor=none;fontSize=11;fontFamily=Helvetica;fontColor=#000000;" parent="1" vertex="1">
                    <mxGeometry x="425" y="690" width="60" height="20" as="geometry"/>
                </mxCell>
                <mxCell id="123" value="Partida" style="ellipse;shape=umlEntity;whiteSpace=wrap;html=1;fillColor=#f5f5f5;fontColor=#333333;strokeColor=#666666;" parent="1" vertex="1">
                    <mxGeometry x="550" y="750" width="70" height="60" as="geometry"/>
                </mxCell>
                <mxCell id="125" value="7.1.1.3.1.1" style="text;html=1;align=center;verticalAlign=middle;resizable=0;points=[];autosize=1;strokeColor=none;fillColor=none;fontSize=11;fontFamily=Helvetica;fontColor=#000000;" parent="1" vertex="1">
                    <mxGeometry x="500" y="745" width="70" height="20" as="geometry"/>
                </mxCell>
                <mxCell id="126" value="Usuario" style="ellipse;shape=umlEntity;whiteSpace=wrap;html=1;fillColor=#f5f5f5;fontColor=#333333;strokeColor=#666666;" parent="1" vertex="1">
                    <mxGeometry x="700" y="410" width="70" height="60" as="geometry"/>
                </mxCell>
                <mxCell id="128" value="6.1.1.1.2.1" style="text;html=1;align=center;verticalAlign=middle;resizable=0;points=[];autosize=1;strokeColor=none;fillColor=none;fontSize=11;fontFamily=Helvetica;fontColor=#000000;" parent="1" vertex="1">
                    <mxGeometry x="640" y="415" width="70" height="20" as="geometry"/>
                </mxCell>
                <mxCell id="129" value="GestorPartida" style="ellipse;shape=umlControl;whiteSpace=wrap;html=1;fontFamily=Helvetica;fontSize=11;fontColor=#333333;strokeColor=#666666;fillColor=#f5f5f5;" parent="1" vertex="1">
                    <mxGeometry x="298" y="475" width="84" height="70" as="geometry"/>
                </mxCell>
                <mxCell id="131" value="Partida" style="ellipse;shape=umlEntity;whiteSpace=wrap;html=1;fillColor=#f5f5f5;fontColor=#333333;strokeColor=#666666;" parent="1" vertex="1">
                    <mxGeometry x="175" y="480" width="70" height="60" as="geometry"/>
                </mxCell>
                <mxCell id="133" value="6.1.1.1.3" style="text;html=1;align=center;verticalAlign=middle;resizable=0;points=[];autosize=1;strokeColor=none;fillColor=none;fontSize=11;fontFamily=Helvetica;fontColor=#000000;" parent="1" vertex="1">
                    <mxGeometry x="310" y="440" width="60" height="20" as="geometry"/>
                </mxCell>
                <mxCell id="134" value="6.1.1.1.3.1" style="text;html=1;align=center;verticalAlign=middle;resizable=0;points=[];autosize=1;strokeColor=none;fillColor=none;fontSize=11;fontFamily=Helvetica;fontColor=#000000;" parent="1" vertex="1">
                    <mxGeometry x="240" y="485" width="70" height="20" as="geometry"/>
                </mxCell>
                <mxCell id="136" value="6.1.1.1.3.1.1" style="text;html=1;align=center;verticalAlign=middle;resizable=0;points=[];autosize=1;strokeColor=none;fillColor=none;fontSize=11;fontFamily=Helvetica;fontColor=#000000;" parent="1" vertex="1">
                    <mxGeometry x="40" y="465" width="80" height="20" as="geometry"/>
                </mxCell>
                <mxCell id="137" value="7.1.1.5" style="text;html=1;align=center;verticalAlign=middle;resizable=0;points=[];autosize=1;strokeColor=none;fillColor=none;fontSize=11;fontFamily=Helvetica;fontColor=#000000;" parent="1" vertex="1">
                    <mxGeometry x="400" y="590" width="50" height="20" as="geometry"/>
                </mxCell>
                <mxCell id="138" value="6.1.1.3.3" style="text;html=1;align=center;verticalAlign=middle;resizable=0;points=[];autosize=1;strokeColor=none;fillColor=none;fontSize=11;fontFamily=Helvetica;fontColor=#000000;" parent="1" vertex="1">
                    <mxGeometry x="310" y="460" width="60" height="20" as="geometry"/>
                </mxCell>
                <mxCell id="139" value="6.1.1.2.3" style="text;html=1;align=center;verticalAlign=middle;resizable=0;points=[];autosize=1;strokeColor=none;fillColor=none;fontSize=11;fontFamily=Helvetica;fontColor=#000000;" parent="1" vertex="1">
                    <mxGeometry x="310" y="450" width="60" height="20" as="geometry"/>
                </mxCell>
                <mxCell id="140" value="6.1.1.2.3.1" style="text;html=1;align=center;verticalAlign=middle;resizable=0;points=[];autosize=1;strokeColor=none;fillColor=none;fontSize=11;fontFamily=Helvetica;fontColor=#000000;" parent="1" vertex="1">
                    <mxGeometry x="240" y="520" width="70" height="20" as="geometry"/>
                </mxCell>
                <mxCell id="141" value="6.1.1.3.3.1" style="text;html=1;align=center;verticalAlign=middle;resizable=0;points=[];autosize=1;strokeColor=none;fillColor=none;fontSize=11;fontFamily=Helvetica;fontColor=#000000;" parent="1" vertex="1">
                    <mxGeometry x="240" y="535" width="70" height="20" as="geometry"/>
                </mxCell>
                <mxCell id="142" value="6.1.1.2.3.1.1" style="text;html=1;align=center;verticalAlign=middle;resizable=0;points=[];autosize=1;strokeColor=none;fillColor=none;fontSize=11;fontFamily=Helvetica;fontColor=#000000;" parent="1" vertex="1">
                    <mxGeometry x="40" y="480" width="80" height="20" as="geometry"/>
                </mxCell>
                <mxCell id="143" value="6.1.1.3.3.1.1" style="text;html=1;align=center;verticalAlign=middle;resizable=0;points=[];autosize=1;strokeColor=none;fillColor=none;fontSize=11;fontFamily=Helvetica;fontColor=#000000;" parent="1" vertex="1">
                    <mxGeometry x="40" y="500" width="80" height="20" as="geometry"/>
                </mxCell>
                <mxCell id="149" value="6.1.2.1" style="text;html=1;align=center;verticalAlign=middle;resizable=0;points=[];autosize=1;strokeColor=none;fillColor=none;fontSize=11;fontFamily=Helvetica;fontColor=#000000;" parent="1" vertex="1">
                    <mxGeometry x="500" y="380" width="50" height="20" as="geometry"/>
                </mxCell>
                <mxCell id="150" value="6.1.2.2" style="text;html=1;align=center;verticalAlign=middle;resizable=0;points=[];autosize=1;strokeColor=none;fillColor=none;fontSize=11;fontFamily=Helvetica;fontColor=#000000;" parent="1" vertex="1">
                    <mxGeometry x="501" y="395" width="50" height="20" as="geometry"/>
                </mxCell>
                <mxCell id="151" value="6.1.2.3" style="text;html=1;align=center;verticalAlign=middle;resizable=0;points=[];autosize=1;strokeColor=none;fillColor=none;fontSize=11;fontFamily=Helvetica;fontColor=#000000;" parent="1" vertex="1">
                    <mxGeometry x="315" y="430" width="50" height="20" as="geometry"/>
                </mxCell>
                <mxCell id="152" value="6.1.2.3.1" style="text;html=1;align=center;verticalAlign=middle;resizable=0;points=[];autosize=1;strokeColor=none;fillColor=none;fontSize=11;fontFamily=Helvetica;fontColor=#000000;" parent="1" vertex="1">
                    <mxGeometry x="240" y="550" width="60" height="20" as="geometry"/>
                </mxCell>
                <mxCell id="154" value="7.1.4.6" style="text;html=1;align=center;verticalAlign=middle;resizable=0;points=[];autosize=1;strokeColor=none;fillColor=none;fontSize=11;fontFamily=Helvetica;fontColor=#000000;" parent="1" vertex="1">
                    <mxGeometry x="480" y="650" width="50" height="20" as="geometry"/>
                </mxCell>
                <mxCell id="155" value="Premio" style="ellipse;shape=umlEntity;whiteSpace=wrap;html=1;fillColor=#f5f5f5;fontColor=#333333;strokeColor=#666666;" parent="1" vertex="1">
                    <mxGeometry x="510" y="575" width="70" height="60" as="geometry"/>
                </mxCell>
                <mxCell id="157" value="7.1.4.4" style="text;html=1;align=center;verticalAlign=middle;resizable=0;points=[];autosize=1;strokeColor=none;fillColor=none;fontSize=11;fontFamily=Helvetica;fontColor=#000000;" parent="1" vertex="1">
                    <mxGeometry x="451" y="600" width="50" height="20" as="geometry"/>
                </mxCell>
                <mxCell id="158" value="7.1.4.3" style="text;html=1;align=center;verticalAlign=middle;resizable=0;points=[];autosize=1;strokeColor=none;fillColor=none;fontSize=11;fontFamily=Helvetica;fontColor=#000000;" parent="1" vertex="1">
                    <mxGeometry x="451" y="590" width="50" height="20" as="geometry"/>
                </mxCell>
                <mxCell id="160" value="7.1.1.4.1" style="text;html=1;align=center;verticalAlign=middle;resizable=0;points=[];autosize=1;strokeColor=none;fillColor=none;fontSize=11;fontFamily=Helvetica;fontColor=#000000;" parent="1" vertex="1">
                    <mxGeometry x="435" y="700" width="60" height="20" as="geometry"/>
                </mxCell>
                <mxCell id="161" value="7.1.1.1" style="text;html=1;align=center;verticalAlign=middle;resizable=0;points=[];autosize=1;strokeColor=none;fillColor=none;fontSize=11;fontFamily=Helvetica;fontColor=#000000;" parent="1" vertex="1">
                    <mxGeometry x="320" y="710" width="50" height="20" as="geometry"/>
                </mxCell>
                <mxCell id="162" value="7.1.1.2" style="text;html=1;align=center;verticalAlign=middle;resizable=0;points=[];autosize=1;strokeColor=none;fillColor=none;fontSize=11;fontFamily=Helvetica;fontColor=#000000;" parent="1" vertex="1">
                    <mxGeometry x="296" y="720" width="50" height="20" as="geometry"/>
                </mxCell>
                <mxCell id="163" value="7.1.1.6" style="text;html=1;align=center;verticalAlign=middle;resizable=0;points=[];autosize=1;strokeColor=none;fillColor=none;fontSize=11;fontFamily=Helvetica;fontColor=#000000;" parent="1" vertex="1">
                    <mxGeometry x="395" y="710" width="50" height="20" as="geometry"/>
                </mxCell>
                <mxCell id="164" value="7.1.1.6.1" style="text;html=1;align=center;verticalAlign=middle;resizable=0;points=[];autosize=1;strokeColor=none;fillColor=none;fontSize=11;fontFamily=Helvetica;fontColor=#000000;" parent="1" vertex="1">
                    <mxGeometry x="495" y="770" width="60" height="20" as="geometry"/>
                </mxCell>
                <mxCell id="165" value="Premio" style="ellipse;shape=umlEntity;whiteSpace=wrap;html=1;fillColor=#f5f5f5;fontColor=#333333;strokeColor=#666666;" parent="1" vertex="1">
                    <mxGeometry x="445" y="495" width="70" height="60" as="geometry"/>
                </mxCell>
                <mxCell id="167" value="6.1.1.1.4" style="text;html=1;align=center;verticalAlign=middle;resizable=0;points=[];autosize=1;strokeColor=none;fillColor=none;fontSize=11;fontFamily=Helvetica;fontColor=#000000;" parent="1" vertex="1">
                    <mxGeometry x="415" y="445" width="60" height="20" as="geometry"/>
                </mxCell>
                <mxCell id="169" value="6.1.1.2.4" style="text;html=1;align=center;verticalAlign=middle;resizable=0;points=[];autosize=1;strokeColor=none;fillColor=none;fontSize=11;fontFamily=Helvetica;fontColor=#000000;" parent="1" vertex="1">
                    <mxGeometry x="415" y="455" width="60" height="20" as="geometry"/>
                </mxCell>
                <mxCell id="170" value="6.1.1.3.4" style="text;html=1;align=center;verticalAlign=middle;resizable=0;points=[];autosize=1;strokeColor=none;fillColor=none;fontSize=11;fontFamily=Helvetica;fontColor=#000000;" parent="1" vertex="1">
                    <mxGeometry x="415" y="465" width="60" height="20" as="geometry"/>
                </mxCell>
                <mxCell id="171" value="7.1.1.3.3" style="text;html=1;align=center;verticalAlign=middle;resizable=0;points=[];autosize=1;strokeColor=none;fillColor=none;fontSize=11;fontFamily=Helvetica;fontColor=#000000;" parent="1" vertex="1">
                    <mxGeometry x="445" y="570" width="60" height="20" as="geometry"/>
                </mxCell>
                <mxCell id="172" value="7.1.1.4.2" style="text;html=1;align=center;verticalAlign=middle;resizable=0;points=[];autosize=1;strokeColor=none;fillColor=none;fontSize=11;fontFamily=Helvetica;fontColor=#000000;" parent="1" vertex="1">
                    <mxGeometry x="445" y="580" width="60" height="20" as="geometry"/>
                </mxCell>
                <mxCell id="173" value="Premio" style="ellipse;shape=umlEntity;whiteSpace=wrap;html=1;fillColor=#f5f5f5;fontColor=#333333;strokeColor=#666666;" parent="1" vertex="1">
                    <mxGeometry x="485" y="20" width="90" height="70" as="geometry"/>
                </mxCell>
                <mxCell id="175" value="1.4" style="text;html=1;align=center;verticalAlign=middle;resizable=0;points=[];autosize=1;fontSize=11;fontFamily=Helvetica;fontColor=#000000;" parent="1" vertex="1">
                    <mxGeometry x="440" y="60" width="30" height="20" as="geometry"/>
                </mxCell>
                <mxCell id="176" value="1.5" style="text;html=1;align=center;verticalAlign=middle;resizable=0;points=[];autosize=1;strokeColor=none;fillColor=none;fontSize=11;fontFamily=Helvetica;fontColor=#000000;" parent="1" vertex="1">
                    <mxGeometry x="440" y="75" width="30" height="20" as="geometry"/>
                </mxCell>
                <mxCell id="177" value="1.6" style="text;html=1;align=center;verticalAlign=middle;resizable=0;points=[];autosize=1;strokeColor=none;fillColor=none;fontSize=11;fontFamily=Helvetica;fontColor=#000000;" parent="1" vertex="1">
                    <mxGeometry x="440" y="90" width="30" height="20" as="geometry"/>
                </mxCell>
                <mxCell id="178" value="1.3.6" style="text;html=1;align=center;verticalAlign=middle;resizable=0;points=[];autosize=1;strokeColor=none;fillColor=none;fontSize=11;fontFamily=Helvetica;fontColor=#000000;" parent="1" vertex="1">
                    <mxGeometry x="435" y="40" width="40" height="20" as="geometry"/>
                </mxCell>
                <mxCell id="180" value="1.3.11" style="text;html=1;align=center;verticalAlign=middle;resizable=0;points=[];autosize=1;strokeColor=none;fillColor=none;fontSize=11;fontFamily=Helvetica;fontColor=#000000;" parent="1" vertex="1">
                    <mxGeometry x="430" y="50" width="50" height="20" as="geometry"/>
                </mxCell>
                <mxCell id="181" value="1.3.7" style="text;html=1;align=center;verticalAlign=middle;resizable=0;points=[];autosize=1;strokeColor=none;fillColor=none;fontSize=11;fontFamily=Helvetica;fontColor=#000000;" parent="1" vertex="1">
                    <mxGeometry x="506" y="130" width="40" height="20" as="geometry"/>
                </mxCell>
                <mxCell id="182" value="1.3.8" style="text;html=1;align=center;verticalAlign=middle;resizable=0;points=[];autosize=1;strokeColor=none;fillColor=none;fontSize=11;fontFamily=Helvetica;fontColor=#000000;" parent="1" vertex="1">
                    <mxGeometry x="485" y="250" width="40" height="20" as="geometry"/>
                </mxCell>
                <mxCell id="183" value="1.3.9" style="text;html=1;align=center;verticalAlign=middle;resizable=0;points=[];autosize=1;strokeColor=none;fillColor=none;fontSize=11;fontFamily=Helvetica;fontColor=#000000;" parent="1" vertex="1">
                    <mxGeometry x="485" y="260" width="40" height="20" as="geometry"/>
                </mxCell>
                <mxCell id="184" value="1.3.5" style="text;html=1;align=center;verticalAlign=middle;resizable=0;points=[];autosize=1;strokeColor=none;fillColor=none;fontColor=#000000;fontSize=11;" parent="1" vertex="1">
                    <mxGeometry x="485" y="240" width="40" height="20" as="geometry"/>
                </mxCell>
                <mxCell id="185" value="1.3.10" style="text;html=1;align=center;verticalAlign=middle;resizable=0;points=[];autosize=1;strokeColor=none;fillColor=none;fontSize=11;fontColor=#000000;" parent="1" vertex="1">
                    <mxGeometry x="480" y="270" width="50" height="20" as="geometry"/>
                </mxCell>
                <mxCell id="186" value="GestorDificultad" style="ellipse;shape=umlControl;whiteSpace=wrap;html=1;fontFamily=Helvetica;fontSize=11;fontColor=#333333;strokeColor=#666666;fillColor=#f5f5f5;" parent="1" vertex="1">
                    <mxGeometry x="185" y="715" width="84" height="70" as="geometry"/>
                </mxCell>
                <mxCell id="188" value="7.1.1.3.2" style="text;html=1;align=center;verticalAlign=middle;resizable=0;points=[];autosize=1;strokeColor=none;fillColor=none;fontSize=11;fontColor=#000000;" parent="1" vertex="1">
                    <mxGeometry x="245" y="690" width="60" height="20" as="geometry"/>
                </mxCell>
            </root>
        </mxGraphModel>
    </diagram>
</mxfile>